<svg width="16" height="20" viewBox="0 0 16 20" fill="none" xmlns="http://www.w3.org/2000/svg">
<path fill-rule="evenodd" clip-rule="evenodd" d="M8.41704 4.84903C8.32004 4.84903 8.22404 4.83703 8.16404 4.82503C8.15204 4.77703 8.12804 4.63203 8.12804 4.48803C8.12804 3.52503 8.62104 2.57503 9.15104 1.97303C9.82504 1.19103 10.944 0.601033 11.882 0.565033C11.906 0.674033 11.918 0.806033 11.918 0.938033C11.918 1.88903 11.509 2.84003 10.932 3.52503C10.318 4.28403 9.25904 4.84903 8.41704 4.84903ZM15.275 6.89403C15.167 6.97903 13.266 8.05003 13.266 10.432C13.266 13.187 15.685 14.162 15.757 14.186C15.745 14.246 15.372 15.522 14.481 16.822C13.687 17.965 12.857 19.108 11.593 19.108C10.33 19.108 10.005 18.373 8.54904 18.373C7.12904 18.373 6.62404 19.132 5.46904 19.132C4.31304 19.132 3.50704 18.073 2.58104 16.773C1.51004 15.245 0.644043 12.875 0.644043 10.624C0.644043 7.01503 2.99004 5.10103 5.30004 5.10103C6.52804 5.10103 7.55004 5.90803 8.32004 5.90803C9.05504 5.90803 10.198 5.05403 11.593 5.05403C12.123 5.05403 14.024 5.10103 15.275 6.89403Z" fill="white"/>
</svg>
