<svg width="90" height="64" viewBox="0 0 90 64" fill="none" xmlns="http://www.w3.org/2000/svg">
<g clip-path="url(#clip0_199_12)">
<path d="M78.2067 64C85.6753 64 89.5053 60.17 89.5053 52.8163V11.222C89.5053 3.83004 85.6753 0 78.2067 0H11.7937C4.32516 0 0.495117 3.79174 0.495117 11.222V52.8163C0.495117 60.2083 4.32516 64 11.7937 64H78.2067ZM31.2121 31.2531H5.24437V11.4518C5.24437 7.04728 7.5807 4.74925 11.8703 4.74925H43.1235V19.8396C40.634 14.3244 35.8464 10.6475 30.7908 10.6475C25.6202 10.6475 21.8668 14.401 21.8668 19.8013C21.8668 24.857 25.9649 29.07 31.2121 31.2531ZM84.756 31.2531H58.7501C63.9972 29.07 68.0954 24.857 68.0954 19.8013C68.0954 14.401 64.3419 10.6475 59.1714 10.6475C54.1157 10.6475 49.3282 14.3244 46.8386 19.8396V4.74925H78.0918C82.3431 4.74925 84.756 7.04728 84.756 11.4518V31.2531ZM42.549 30.8701H41.4C33.3186 30.8701 26.0798 25.3932 26.0798 20.1077C26.0798 16.9288 28.0714 14.8989 31.0206 14.8989C36.9954 14.8989 42.549 21.9078 42.549 29.836V30.8701ZM48.5621 30.8701H47.4131V29.836C47.4131 21.9078 52.9667 14.8989 58.9416 14.8989C61.8907 14.8989 63.8823 16.9288 63.8823 20.1077C63.8823 25.3932 56.6435 30.8701 48.5621 30.8701ZM78.0918 59.2507H46.8386V37.0365H47.0684C50.6687 46.0754 60.2055 52.5865 65.7973 53.5823C67.5209 53.8504 68.5933 52.5865 68.5933 51.246C68.5933 49.7905 67.7507 48.833 66.0271 48.6415C60.8949 47.9904 52.6986 40.7899 49.6729 34.6619H84.756V52.5482C84.756 56.991 82.3431 59.2507 78.0918 59.2507ZM43.1235 59.2507H11.8703C7.5807 59.2507 5.24437 56.991 5.24437 52.5482V34.6619H40.2893C37.3018 40.7899 29.0672 47.9904 23.935 48.6415C22.2115 48.833 21.3688 49.7905 21.3688 51.246C21.3688 52.5865 22.4413 53.8504 24.1648 53.5823C29.7566 52.5865 39.2934 46.0754 42.8937 37.0365H43.1235V59.2507Z" fill="#1D1D1F"/>
</g>
<defs>
<clipPath id="clip0_199_12">
<rect width="90" height="64" fill="white"/>
</clipPath>
</defs>
</svg>
