<svg width="18" height="18" viewBox="0 0 18 18" fill="none" xmlns="http://www.w3.org/2000/svg">
<path d="M17.4979 16.7446L12.7119 11.9566C13.8985 10.5674 14.501 8.77278 14.3932 6.94905C14.2854 5.12531 13.4756 3.41415 12.1337 2.17445C10.7918 0.934739 9.02197 0.262792 7.19541 0.299526C5.36886 0.336261 3.62749 1.07882 2.33649 2.37148C1.04549 3.66414 0.30517 5.40647 0.270785 7.23307C0.236399 9.05966 0.910623 10.8286 2.15205 12.169C3.39349 13.5093 5.10568 14.3169 6.92956 14.4223C8.75343 14.5278 10.5473 13.9229 11.9349 12.7346L16.7199 17.5226C16.77 17.5775 16.8308 17.6217 16.8984 17.6525C16.9661 17.6833 17.0393 17.7001 17.1136 17.7018C17.188 17.7035 17.2619 17.6901 17.3309 17.6624C17.3999 17.6348 17.4626 17.5934 17.5152 17.5408C17.5677 17.4882 17.6091 17.4256 17.6368 17.3565C17.6644 17.2875 17.6778 17.2136 17.6761 17.1393C17.6744 17.065 17.6576 16.9918 17.6268 16.9241C17.596 16.8564 17.5519 16.7957 17.4969 16.7456L17.4979 16.7446ZM1.41292 7.38158C1.41372 6.20574 1.76311 5.05654 2.41695 4.07925C3.07079 3.10196 3.9997 2.34047 5.08626 1.89105C6.17282 1.44162 7.36823 1.32444 8.52138 1.55432C9.67453 1.7842 10.7336 2.35082 11.5648 3.18254C12.396 4.01426 12.9619 5.07374 13.191 6.22704C13.4201 7.38035 13.3021 8.57568 12.8519 9.66194C12.4018 10.7482 11.6397 11.6766 10.6619 12.3298C9.6842 12.983 8.53476 13.3316 7.35892 13.3316C5.78215 13.3287 4.27084 12.7007 3.15627 11.5854C2.04169 10.4701 1.41477 8.95836 1.41292 7.38158Z" fill="#86868B"/>
</svg>
