<svg id="Outlined" xmlns="http://www.w3.org/2000/svg" width="121" height="43" viewBox="0 0 121 43"><g id="nl_globalnav_links_onlyonapple_image_small" data-name="nl@globalnav_links_onlyonapple_image_small"><rect id="box_" width="121" height="43" fill="none"/><path id="art_" d="M9.9351,23.6133H5.17L3.9668,27.0415H2.3979L6.814,15.0635H8.2915l4.416,11.978H11.1387ZM5.61,22.3433H9.4951l-1.876-5.3457H7.4863Zm8.7236-7.8028h1.4277v12.501H14.334Zm3.9092,0h1.4277v12.501H18.2432ZM29.4238,24.7256c-.415,1.5273-1.8095,2.4736-3.7685,2.4736-2.482,0-4.0342-1.793-4.0342-4.6235,0-2.814,1.5771-4.64,4.0342-4.64,2.4155,0,3.8847,1.7183,3.8847,4.4991v.5478H23.1069v.0664c.0747,1.7681,1.0625,2.8887,2.5816,2.8887a2.318,2.318,0,0,0,2.3076-1.2119Zm-6.3169-2.897h4.9307a2.4086,2.4086,0,0,0-2.3989-2.6313A2.5489,2.5489,0,0,0,23.1069,21.8286Zm15.6548,2.897c-.415,1.5273-1.81,2.4736-3.7685,2.4736-2.482,0-4.0342-1.793-4.0342-4.6235,0-2.814,1.5771-4.64,4.0342-4.64,2.4155,0,3.8847,1.7183,3.8847,4.4991v.5478H32.4448v.0664c.0747,1.7681,1.0625,2.8887,2.5816,2.8887a2.3181,2.3181,0,0,0,2.3076-1.2119Zm-6.3169-2.897h4.9307a2.4086,2.4086,0,0,0-2.3989-2.6313A2.5489,2.5489,0,0,0,32.4448,21.8286Zm8.3-3.7353h1.3613v1.4111h.1329a2.6894,2.6894,0,0,1,2.6894-1.5689c2.0088,0,3.1294,1.1871,3.1294,3.3121v5.7939H46.63V21.5962c0-1.61-.6807-2.374-2.1084-2.374a2.2687,2.2687,0,0,0-2.3491,2.5234v5.2959H40.7451Zm15.5464,7.5205h-.1328v1.4277H54.7974V14.5405h1.4277v4.9639h.1328a3.0892,3.0892,0,0,1,2.8057-1.5689c2.2744,0,3.7519,1.8179,3.7519,4.6319,0,2.7973-1.4858,4.6318-3.7519,4.6318A3.2106,3.2106,0,0,1,56.2915,25.6138Zm-.1-3.0464c0,2.0669,1.0127,3.3452,2.64,3.3452,1.6353,0,2.6065-1.2534,2.6065-3.3452s-.9712-3.3452-2.6065-3.3452C57.2046,19.2222,56.1919,20.5005,56.1919,22.5674Zm8.3418-7.1968a.9961.9961,0,1,1,.9961.9961A.999.999,0,0,1,64.5337,15.3706Zm.2822,2.7227h1.4278v8.9482H64.8159Zm5.2373,9.3881c0,1.8428-.8633,2.6314-2.7392,2.6314h-.2491v-1.22h.2159c1.0127,0,1.3447-.3985,1.3447-1.3863v-9.413h1.4277ZM68.36,15.3706a.9961.9961,0,1,1,.9961.9961A.999.999,0,0,1,68.36,15.3706Zm15.2314,8.2427H78.8267L77.623,27.0415H76.0542l4.416-11.978h1.4776l4.416,11.978H84.7949Zm-4.3247-1.27h3.8848l-1.876-5.3457h-.1328Zm16.7588.2241c0,2.7973-1.4858,4.6318-3.76,4.6318a3.003,3.003,0,0,1-2.7973-1.5024H89.335V30.03H87.9072V18.0933h1.3614v1.4941h.1328a3.2257,3.2257,0,0,1,2.8637-1.6519C94.5479,17.9355,96.0254,19.7534,96.0254,22.5674Zm-1.4775,0c0-2.0918-.98-3.3452-2.6148-3.3452-1.6186,0-2.64,1.2866-2.64,3.3452,0,2.05,1.021,3.3452,2.6313,3.3452C93.5684,25.9126,94.5479,24.6592,94.5479,22.5674Zm11.4628,0c0,2.7973-1.4858,4.6318-3.76,4.6318a3.0033,3.0033,0,0,1-2.7974-1.5024H99.32V30.03H97.8926V18.0933h1.3613v1.4941h.1328a3.226,3.226,0,0,1,2.8638-1.6519C104.5332,17.9355,106.0107,19.7534,106.0107,22.5674Zm-1.4775,0c0-2.0918-.9795-3.3452-2.6147-3.3452-1.6187,0-2.64,1.2866-2.64,3.3452,0,2.05,1.021,3.3452,2.6314,3.3452C103.5537,25.9126,104.5332,24.6592,104.5332,22.5674Zm3.4277-8.0269h1.4278v12.501h-1.4278Zm11.1807,10.1851c-.415,1.5273-1.81,2.4736-3.7686,2.4736-2.4819,0-4.0341-1.793-4.0341-4.6235,0-2.814,1.5771-4.64,4.0341-4.64,2.4156,0,3.8848,1.7183,3.8848,4.4991v.5478h-6.4331v.0664c.0747,1.7681,1.0625,2.8887,2.5815,2.8887a2.3181,2.3181,0,0,0,2.3077-1.2119Zm-6.3169-2.897h4.9307a2.4086,2.4086,0,0,0-2.399-2.6313A2.5488,2.5488,0,0,0,112.8247,21.8286Z" fill="#fff"/></g></svg>