<svg enable-background="new 0 0 102 43" height="43" viewBox="0 0 102 43" width="102" xmlns="http://www.w3.org/2000/svg"><path d="m0 0h102v43h-102z" fill="none"/><path d="m5.7651 27.5415v-10.6333h-3.8598v-1.3447h9.2139v1.3447h-3.8599v10.6333zm10.7491 0-4.416-11.978h1.5688l3.5195 10.0439h.1328l3.5195-10.0439h1.5688l-4.416 11.978zm19.3979-1.1953c-1.021.8965-2.4238 1.4194-3.8765 1.4194-2.3823 0-4.0508-1.4111-4.0508-3.4199 0-1.4194.772-2.4985 2.374-3.3452.1079-.0498.332-.166.4648-.2324-1.104-1.1621-1.5024-1.9341-1.5024-2.8057 0-1.5356 1.3032-2.6812 3.0547-2.6812 1.7681 0 3.0547 1.1289 3.0547 2.6978 0 1.2285-.7388 2.125-2.5898 3.0962l2.9966 3.2207c.3735-.7471.5645-1.7266.5645-3.2207v-.2075h1.3945v.2158c0 1.8594-.332 3.2124-.9878 4.2251l2.0835 2.2329h-1.876zm-6.4331-2.1001c0 1.3447 1.0874 2.2578 2.6895 2.2578 1.0874 0 2.208-.4316 2.8638-1.1206l-3.3867-3.7021c-.0913.0332-.3071.1411-.4233.1992-1.1539.5976-1.7433 1.4277-1.7433 2.3657zm4.5488-6.2173c0-.9297-.6724-1.5605-1.6436-1.5605-.9546 0-1.6353.6475-1.6353 1.5771 0 .6641.3403 1.2451 1.2866 2.1831 1.4611-.7471 1.9923-1.3447 1.9923-2.1997zm14.5669 9.5127h-1.4111l-3.2622-11.978h1.5605l2.3823 9.7368h.0996l2.6812-9.7368h1.5107l2.6812 9.7368h.0996l2.3823-9.7368h1.5605l-3.2622 11.978h-1.4111l-2.7559-9.4546h-.0996zm10.7241-4.4741c0-2.8804 1.5771-4.6318 4.1255-4.6318s4.1255 1.7515 4.1255 4.6318c0 2.8721-1.5771 4.6318-4.1255 4.6318s-4.1255-1.7597-4.1255-4.6318zm6.7735 0c0-2.125-.9546-3.3452-2.6479-3.3452s-2.6479 1.2202-2.6479 3.3452c0 2.1167.9546 3.3452 2.6479 3.3452s2.6479-1.2285 2.6479-3.3452zm3.3447-4.4741h1.3613v1.4111h.1328c.4482-.9878 1.3198-1.5688 2.6895-1.5688 2.0088 0 3.1294 1.187 3.1294 3.312v5.7939h-1.4277v-5.4453c0-1.6104-.6807-2.374-2.1084-2.374s-2.3491.9546-2.3491 2.5234v5.2959h-1.4278zm9.2964-2.7227c0-.5479.4482-.9961.9961-.9961s.9961.4482.9961.9961-.4482.9961-.9961.9961-.9961-.4482-.9961-.9961zm.2822 2.7227h1.4277v8.9482h-1.4277zm3.7764 0h1.3613v1.4111h.1328c.4482-.9878 1.3198-1.5688 2.6895-1.5688 2.0088 0 3.1294 1.187 3.1294 3.312v5.7939h-1.4277v-5.4453c0-1.6104-.6807-2.374-2.1084-2.374s-2.3491.9546-2.3491 2.5234v5.2959h-1.4278zm9.479 9.936h1.5107c.1577.7305.9546 1.2036 2.2412 1.2036 1.6021 0 2.5566-.7886 2.5566-2.1084v-1.7598h-.1328c-.5645.9878-1.5771 1.5439-2.8057 1.5439-2.3159 0-3.752-1.793-3.752-4.4741s1.4526-4.499 3.752-4.499c1.2534 0 2.3574.6143 2.8721 1.5771h.1328v-1.4194h1.3613v9.106c0 2.0005-1.5439 3.2788-3.9844 3.2788-2.1581 0-3.536-.9712-3.7518-2.4487zm6.3418-5.5947c0-1.9507-1.0044-3.2124-2.6562-3.2124-1.6602 0-2.5898 1.2617-2.5898 3.2124s.9297 3.2124 2.5898 3.2124 2.6562-1.2617 2.6562-3.2124z" fill="#fff"/></svg>