<svg width="16" height="18" viewBox="0 0 16 18" fill="none" xmlns="http://www.w3.org/2000/svg">
<path fill-rule="evenodd" clip-rule="evenodd" d="M14.7754 15.1402C14.7754 15.9672 14.1024 16.6402 13.2754 16.6402H3.27539C2.44839 16.6402 1.77539 15.9672 1.77539 15.1402V6.1382C1.77539 5.3102 2.44839 4.6382 3.27539 4.6382H13.2754C14.1024 4.6382 14.7754 5.3102 14.7754 6.1382V15.1402ZM8.27539 1.1402C9.71139 1.1402 10.8824 2.2382 11.0274 3.6382H5.52339C5.66839 2.2382 6.83939 1.1402 8.27539 1.1402ZM13.2754 3.6382H12.0274C11.8794 1.6862 10.2624 0.140198 8.27539 0.140198C6.28839 0.140198 4.67139 1.6862 4.52339 3.6382H3.27539C1.89739 3.6382 0.775391 4.7592 0.775391 6.1382V15.1402C0.775391 16.5182 1.89739 17.6402 3.27539 17.6402H13.2754C14.6534 17.6402 15.7754 16.5182 15.7754 15.1402V6.1382C15.7754 4.7592 14.6534 3.6382 13.2754 3.6382Z" fill="white"/>
</svg>
